<?xml version="1.0" encoding="UTF-8"?>
<svg width="1200pt" height="1200pt" version="1.1" viewBox="0 0 1200 1200" xmlns="http://www.w3.org/2000/svg">
 <path d="m618.74 693.74c0-10.359-8.3906-18.75-18.75-18.75h-506.26c-10.359 0-18.75-8.3906-18.75-18.75v-562.5c0-10.359 8.3906-18.75 18.75-18.75h825c10.359 0 18.75 8.3906 18.75 18.75v525c0.14062 24.422 37.219 24.75 37.5 0v-525c0-31.031-25.219-56.25-56.25-56.25h-825c-31.031 0-56.25 25.219-56.25 56.25v562.5c0 31.031 25.219 56.25 56.25 56.25h506.26c10.359 0 18.75-8.3906 18.75-18.75z" fill="#80b521"/>
 <path d="m750 862.5h-281.26c-10.359 0-18.75-8.3906-18.75-18.75v-75c-0.375-24.562-37.125-24.656-37.5 0v75c0 31.031 25.219 56.25 56.25 56.25h281.26c24.516-0.42188 24.75-37.078 0-37.5z" fill="#80b521"/>
 <path d="m1106.3 300h-75c-10.359 0-18.75 8.3906-18.75 18.75s8.3906 18.75 18.75 18.75h75c10.359 0 18.75 8.3906 18.75 18.75v487.5c0 10.359-8.3906 18.75-18.75 18.75h-37.5c-10.359 0-18.75 8.3906-18.75 18.75s8.3906 18.75 18.75 18.75h37.5c31.031 0 56.25-25.219 56.25-56.25v-487.5c0-31.031-25.219-56.25-56.25-56.25z" fill="#80b521"/>
 <path d="m375 243.74c0-7.4531-4.4531-14.203-11.25-17.203l-71.625-31.125-31.125-71.625c-3.0469-6.8906-9.7969-11.297-17.25-11.297s-14.203 4.4531-17.203 11.25l-31.125 71.625-71.625 31.125c-6.8438 3-11.297 9.7969-11.297 17.25 0 7.4531 4.4531 14.203 11.25 17.203l71.625 31.125 31.125 71.625c3.0469 6.8438 9.7969 11.297 17.25 11.297s14.203-4.4531 17.203-11.25l31.125-71.625 71.625-31.125c6.8438-3.0469 11.297-9.7969 11.297-17.25zm-104.62 16.875c-4.3594 1.875-7.8281 5.3438-9.7031 9.7031l-16.922 38.906-16.922-38.859c-1.875-4.3594-5.3438-7.8281-9.7031-9.7031l-38.859-16.922 38.859-16.922c4.3594-1.875 7.8281-5.3438 9.7031-9.7031l16.922-38.859 16.922 38.859c1.875 4.3594 5.3438 7.8281 9.7031 9.7031l38.859 16.922z" fill="#80b521"/>
 <path d="m187.5 431.26c-20.672 0-37.5 16.828-37.5 37.5v112.5c0 20.672 16.828 37.5 37.5 37.5h112.5c20.672 0 37.5-16.828 37.5-37.5v-112.5c0-20.672-16.828-37.5-37.5-37.5zm112.5 150h-112.5v-112.5h112.5z" fill="#80b521"/>
 <path d="m890.48 640.6c6.5625-61.172-44.016-117.47-105.56-121.45-38.438-3.1875-70.688-14.297-95.859-33-22.078-16.406-38.906-31.312-39.094-31.453-11.625-11.016-32.391-1.2656-31.172 14.766-1.9688 4.3125 16.5 228.19 102.19 259.78l274.03 406.69c8.5312 12.703 21.422 21.469 35.812 24.703 46.5 13.453 92.344-38.062 69.75-81.797 0 0.046875-210.1-438.24-210.1-438.24zm-187.36 21.281c-25.594-47.344-37.406-109.36-42.75-150.32 33.047 26.156 72.609 40.875 121.4 45 48.516 2.6719 85.266 53.484 67.312 99.234-22.781 62.953-115.55 66.094-145.97 6.0938zm72.328 81.141c38.156 0.84375 77.438-20.531 97.594-52.031l30.75 64.125-88.734 46.734zm281.58 379.22c-5.1562 2.7188-11.391 3.4688-17.531 1.9219-5.4844-1.2188-10.219-4.5-13.406-9.1406l-189.94-281.9 83.859-44.156 146.72 306.1c4.8281 10.078 0.65625 21.75-9.7031 27.188z" fill="#80b521"/>
 <path d="m787.5 225h-187.5c-24.609 0.42188-24.703 37.078 0 37.5h187.5c24.609-0.42188 24.703-37.078 0-37.5z" fill="#80b521"/>
 <path d="m787.5 300h-131.26c-24.609 0.42188-24.656 37.078 0 37.5h131.26c24.609-0.42188 24.656-37.078 0-37.5z" fill="#80b521"/>
</svg>
