<?xml version="1.0" encoding="UTF-8"?>
<svg width="1200pt" height="1200pt" version="1.1" viewBox="0 0 1200 1200" xmlns="http://www.w3.org/2000/svg">
 <path d="m736.89 355.61c37.227-25.438 61.727-68.211 61.727-116.6 0-77.824-63.312-141.14-141.14-141.14-77.824 0-141.14 63.312-141.14 141.14 0 17.398 3.1641 34.375 9.25 50.301-73.512 4.8008-131.85 66.102-131.85 140.8 0 17.398 3.1641 34.375 9.25 50.301-73.512 4.8008-131.85 66.102-131.85 140.8 0 17.398 3.1641 34.375 9.25 50.301-73.512 4.8008-131.85 66.102-131.85 140.8 0 48.387 24.488 91.164 61.711 116.6-96.359 30.57-168.97 115.42-180.26 220.84-0.5625 5.1875 1.1133 10.363 4.6133 14.25 3.4883 3.8867 8.4609 6.1016 13.676 6.1016h482.76c5.2109 0 10.188-2.2109 13.676-6.1016 3.4883-3.875 5.1641-9.0625 4.6133-14.25-7.3633-68.801-40.852-128.85-90-170.75h194.32c5.2109 0 10.188-2.2109 13.676-6.1016 3.4883-3.875 5.1641-9.0625 4.6133-14.25-7.3633-68.801-40.852-128.85-90-170.75h194.31c5.2109 0 10.188-2.2109 13.676-6.1016 3.4883-3.875 5.1641-9.0625 4.6133-14.25-7.3633-68.801-40.852-128.85-90-170.75h194.32c5.2109 0 10.188-2.2109 13.676-6.1016 3.4883-3.875 5.1641-9.0625 4.6133-14.25-11.32-105.43-83.918-190.28-180.27-220.84zm-79.426-220.96c57.539 0 104.36 46.812 104.36 104.36 0 57.539-46.812 104.36-104.36 104.36-3.9883 0-7.9766-0.25-11.938-0.69922-19.25-24.312-46.312-42.148-77.387-49.699-9.8516-16.25-15.039-34.762-15.039-53.961 0.003906-57.539 46.828-104.37 104.36-104.37zm-122.6 191.1c57.539 0 104.36 46.812 104.36 104.36 0 57.539-46.801 104.34-104.32 104.36h-0.023438c-3.6758 0-7.4141 0.085938-11.188 0.25-19.301-24.801-46.664-43.012-78.137-50.648-9.8516-16.25-15.039-34.762-15.039-53.961-0.015625-57.543 46.809-104.37 104.35-104.37zm-122.6 191.11c57.539 0 104.36 46.812 104.36 104.36 0 57.539-46.801 104.34-104.32 104.36h-0.039062-0.023438c-3.9766 0-7.9609-0.25-11.914-0.69922-19.25-24.312-46.312-42.148-77.387-49.699-9.8516-16.25-15.039-34.762-15.039-53.961 0-57.555 46.812-104.37 104.36-104.37zm-226.96 295.46c0-57.551 46.812-104.36 104.36-104.36 57.539 0 104.36 46.812 104.36 104.36 0 57.512-46.762 104.31-104.27 104.36h-0.085937-0.085938c-57.52-0.0625-104.28-46.852-104.28-104.36zm324.34 321h-439.96c20.75-103.85 111.91-179.84 219.91-179.88h0.074218 0.074219c107.99 0.050781 199.15 76.039 219.9 179.88zm122.6-191.1h-229.54c-10.824-5.1758-22.051-9.6367-33.625-13.312 37.227-25.438 61.711-68.211 61.711-116.6 0-17.512-3.2266-34.273-9.0859-49.762 103.88 4.3008 190.4 78.848 210.54 179.68zm122.6-191.1h-229.52c-10.824-5.1758-22.051-9.6367-33.625-13.312 37.227-25.438 61.727-68.211 61.727-116.6 0-17.512-3.2266-34.273-9.0859-49.75 103.85 4.2891 190.37 78.84 210.51 179.66zm-106.92-191.1c-10.824-5.1758-22.051-9.6367-33.625-13.312 37.227-25.438 61.727-68.211 61.727-116.6 0-17.512-3.2266-34.273-9.0859-49.75 103.85 4.2891 190.38 78.836 210.52 179.66zm342.69-530.14c-98.988 0-179.51 80.523-179.51 179.51 0 98.988 80.523 179.51 179.51 179.51 98.988 0 179.51-80.523 179.51-179.51 0-98.984-80.527-179.51-179.51-179.51zm0 322.24c-78.699 0-142.73-64.023-142.73-142.73 0-78.699 64.023-142.73 142.73-142.73 78.699 0 142.73 64.023 142.73 142.73-0.003906 78.695-64.027 142.73-142.73 142.73zm110.65-142.73c0 10.164-8.2383 18.387-18.387 18.387l-73.863 0.003906v73.863c0 10.164-8.2383 18.387-18.387 18.387-10.148 0-18.387-8.2383-18.387-18.387v-73.863h-73.863c-10.148 0-18.387-8.2383-18.387-18.387 0-10.148 8.2383-18.387 18.387-18.387h73.863v-73.867c0-10.164 8.2383-18.387 18.387-18.387 10.148 0 18.387 8.2383 18.387 18.387v73.863h73.863c10.148 0 18.387 8.2266 18.387 18.387z" fill="#80b521"/>
</svg>
