<?xml version="1.0" encoding="UTF-8"?>
<svg width="1200pt" height="1200pt" version="1.1" viewBox="0 0 1200 1200" xmlns="http://www.w3.org/2000/svg">
 <path d="m1116.4 461.83-103.85-89.051v-35.367h76.957c4.625 0.003907 9.0664-1.832 12.336-5.1016 3.2734-3.2695 5.1133-7.707 5.1133-12.332v-84.719c-0.023438-17.141-6.8398-33.57-18.961-45.688-12.117-12.117-28.547-18.938-45.684-18.957h-265.2c-0.88672-1.3398-1.9531-2.5547-3.168-3.6016l-162.68-138.32c-3.1602-2.6992-7.1758-4.1797-11.328-4.1797-4.1562 0-8.1719 1.4805-11.328 4.1797l-162.12 139.07c-0.99219 0.84375-1.8828 1.8008-2.6523 2.8555h-156.74c-22.535 0.023437-44.141 8.9844-60.074 24.918-15.938 15.93-24.902 37.531-24.934 60.066v121.71l-99.289 85.09c-3.8516 3.3047-6.0742 8.125-6.0859 13.203v1.1992 651.28c0.015625 12.562 5.0156 24.605 13.898 33.488 8.8828 8.8828 20.926 13.883 33.492 13.898h951.6-0.003906c12.582 0.015625 24.656-4.9688 33.566-13.855 8.9062-8.8867 13.918-20.949 13.93-33.531v-652.43c0.011719-5.4141-2.5-10.523-6.793-13.824zm-37.465 13.824-66.383 56.914v-113.84zm-6.8633-240.39v67.285l-59.52-0.003906v-67.281c0-10.633 5.6719-20.457 14.883-25.773 9.207-5.3164 20.551-5.3164 29.758 0 9.207 5.3164 14.879 15.141 14.879 25.773zm-472.08-170.36 124.32 105.71-247.6 0.003907zm-332.9 140.58h717.88c-4.7969 9.1914-7.3008 19.406-7.2969 29.773v84.719 0.88672 0.875 240.73l-377.68 323.88-383.03-328.36v-302.4c0.023438-13.289 5.3086-26.023 14.707-35.414 9.3945-9.3945 22.129-14.68 35.418-14.699zm-85.008 217.78v104.73l-61.105-52.391zm893.77 717.32h-951.6 0.003907c-6.9062-0.007813-12.5-5.6016-12.504-12.504v-614.48l345.93 296.71-235.59 202.01c-4.7305 4.0547-6.9375 10.324-5.7891 16.449 1.1484 6.1211 5.4766 11.168 11.352 13.234 5.8789 2.0703 12.41 0.84375 17.141-3.2109l239.69-205.51 104.12 89.293v-0.003907c3.1602 2.7148 7.1875 4.2031 11.352 4.2031 4.1641 0 8.1914-1.4883 11.352-4.2031l104.14-89.293 239.68 205.52c4.7266 4.0547 11.262 5.2812 17.137 3.2109 5.8789-2.0664 10.207-7.1133 11.352-13.234 1.1484-6.125-1.0547-12.395-5.7852-16.449l-235.6-202.01 346.16-296.8v614.57c0 3.3203-1.3242 6.5039-3.6758 8.8477-2.3516 2.3477-5.543 3.6602-8.8633 3.6562zm-776.62-802.93c0-4.625 1.8398-9.0586 5.1094-12.328 3.2695-3.2695 7.7031-5.1094 12.328-5.1094h335.18c6.2305 0 11.984 3.3242 15.102 8.7188 3.1133 5.3945 3.1133 12.043 0 17.438-3.1172 5.3945-8.8711 8.7188-15.102 8.7188h-335.18c-4.625 0-9.0625-1.8359-12.332-5.1055-3.2695-3.2695-5.1055-7.707-5.1055-12.332zm0 122.59v-0.003906c0-4.625 1.8359-9.0625 5.1055-12.336 3.2695-3.2734 7.707-5.1094 12.332-5.1094h547.07c6.125 0.16016 11.715 3.5195 14.73 8.8516 3.0156 5.3281 3.0156 11.852 0 17.18-3.0156 5.332-8.6055 8.6914-14.73 8.8516h-547.07c-4.625 0-9.0586-1.8359-12.328-5.1055-3.2695-3.2695-5.1094-7.707-5.1094-12.332zm0 122.61v-0.003907c0-4.625 1.8359-9.0625 5.1055-12.336 3.2695-3.2734 7.707-5.1133 12.332-5.1133h547.07c6.125 0.16406 11.715 3.5195 14.73 8.8516 3.0156 5.332 3.0156 11.852 0 17.184-3.0156 5.332-8.6055 8.6914-14.73 8.8516h-547.07c-4.625 0-9.0586-1.8398-12.328-5.1094-3.2695-3.2695-5.1094-7.7031-5.1094-12.328z" fill="#80b521"/>
</svg>
