<?xml version="1.0" encoding="UTF-8"?>
<svg width="1200pt" height="1200pt" version="1.1" viewBox="0 0 1200 1200" xmlns="http://www.w3.org/2000/svg">
 <path d="m1121.1 896.64c71.992-126 95.895-273.82 67.285-416.08-28.609-142.27-107.8-269.36-222.9-357.73-115.1-88.379-258.32-132.06-403.15-122.96s-281.46 70.359-384.6 172.44c-103.14 102.09-165.8 238.08-176.38 382.81-10.586 144.73 31.625 288.39 118.82 404.39 87.191 116 213.46 196.49 355.42 226.55 141.97 30.07 290.02 7.6836 416.75-63.008 78.582 48.832 168.94 75.43 261.45 76.949 9.4297 0 19.016-0.30078 28.719-0.96094 6.0273-0.55859 11.43-3.9414 14.57-9.1133 3.1367-5.1758 3.6328-11.531 1.3438-17.133-39.398-87.684-65.465-180.77-77.328-276.16zm-217.14 189.14c-2.9453-2.0938-6.4297-3.2969-10.039-3.457-3.6133-0.16406-7.1914 0.71875-10.312 2.543-118 68.824-257.02 92.32-391.09 66.102-134.06-26.223-253.99-100.37-337.37-208.57s-124.49-243.08-115.67-379.39c8.8281-136.32 66.992-264.76 163.62-361.31 96.637-96.555 225.12-154.61 361.45-163.33 136.32-8.7148 271.16 32.516 379.3 115.98 108.14 83.465 182.19 203.45 208.3 337.54 26.109 134.09 2.5 273.09-66.422 391.04-1.8945 3.2344-2.7773 6.9609-2.5352 10.699 0.32812 5.0078 8.3867 118.42 70.121 268.88-140.03-0.375-248.23-75.902-249.36-76.711z" fill="#80b521"/>
 <path d="m600 478.12c-32.324 0-63.32 12.84-86.176 35.699-22.859 22.855-35.699 53.852-35.699 86.176 0.003906 32.324 12.844 63.324 35.699 86.18 22.855 22.855 53.855 35.695 86.176 35.695 32.324 0 63.324-12.84 86.18-35.695 22.855-22.859 35.695-53.855 35.695-86.18-0.035156-32.312-12.891-63.289-35.738-86.137-22.848-22.848-53.824-35.699-86.137-35.738zm0 206.25c-22.379 0-43.84-8.8906-59.66-24.715-15.824-15.82-24.715-37.281-24.715-59.66s8.8906-43.84 24.715-59.66c15.824-15.824 37.285-24.715 59.66-24.715 22.379 0 43.84 8.8906 59.664 24.715 15.82 15.82 24.711 37.281 24.711 59.66-0.023438 22.371-8.9219 43.816-24.738 59.637-15.82 15.816-37.266 24.715-59.637 24.738z" fill="#80b521"/>
 <path d="m937.5 478.12c-32.324 0-63.32 12.84-86.176 35.699-22.859 22.855-35.699 53.852-35.699 86.176 0.003906 32.324 12.844 63.324 35.699 86.18 22.855 22.855 53.855 35.695 86.176 35.695 32.324 0 63.324-12.84 86.18-35.695 22.855-22.859 35.695-53.855 35.695-86.18-0.035156-32.312-12.891-63.289-35.738-86.137-22.848-22.848-53.824-35.699-86.137-35.738zm0 206.25c-22.379 0-43.84-8.8906-59.66-24.715-15.824-15.82-24.715-37.281-24.715-59.66s8.8906-43.84 24.715-59.66c15.824-15.824 37.285-24.715 59.66-24.715 22.379 0 43.84 8.8906 59.664 24.715 15.82 15.82 24.711 37.281 24.711 59.66-0.023438 22.371-8.9219 43.816-24.738 59.637-15.82 15.816-37.266 24.715-59.637 24.738z" fill="#80b521"/>
 <path d="m262.5 478.12c-32.324 0-63.32 12.84-86.176 35.699-22.859 22.855-35.699 53.852-35.699 86.176 0.003906 32.324 12.844 63.324 35.699 86.18 22.855 22.855 53.855 35.695 86.176 35.695 32.324 0 63.324-12.84 86.18-35.695 22.855-22.859 35.695-53.855 35.695-86.18-0.035156-32.312-12.891-63.289-35.738-86.137-22.848-22.848-53.824-35.699-86.137-35.738zm0 206.25c-22.379 0-43.84-8.8906-59.66-24.715-15.824-15.82-24.715-37.281-24.715-59.66s8.8906-43.84 24.715-59.66c15.824-15.824 37.285-24.715 59.66-24.715 22.379 0 43.84 8.8906 59.664 24.715 15.82 15.82 24.711 37.281 24.711 59.66-0.023438 22.371-8.9219 43.816-24.738 59.637-15.82 15.816-37.266 24.715-59.637 24.738z" fill="#80b521"/>
</svg>
