<?xml version="1.0" encoding="UTF-8"?>
<svg width="1200pt" height="1200pt" version="1.1" viewBox="0 0 1200 1200" xmlns="http://www.w3.org/2000/svg">
 <path d="m705.56 231.32c7.0312 0 13.359 2.8594 17.953 7.4531s7.4531 10.922 7.4531 17.953c0 6.9844-2.8594 13.312-7.5 17.953-4.5938 4.5938-10.922 7.4531-17.906 7.4531s-13.312-2.8594-17.906-7.4531c-4.6406-4.6406-7.5-10.969-7.5-17.953s2.8594-13.312 7.4531-17.906l0.046875-0.046875h-0.046875c4.5938-4.5938 10.922-7.4531 17.953-7.4531zm-646.6 890.21 142.87-142.64-142.87-106.73zm170.11-156.98-170.11-127.03v-34.453h465.98v34.5l-232.97 174-58.406-43.641c-0.1875-0.1875-0.375-0.375-0.5625-0.60938-1.1719-1.1719-2.5312-2.0625-3.9375-2.7656zm-4.8281 31.031 59.203 44.203c4.7812 3.75 11.672 3.9844 16.781 0.14062l59.391-44.344 145.69 145.4h-5.625l-421.13 0.046875zm157.82-16.734 142.87 142.64v-249.32zm503.26-947.63c-64.594 0-124.13 5.1562-171.19 13.734l-0.046875-0.28125c-0.23438-7.4531-6.3281-13.406-13.875-13.406l-200.48-0.046875v0.046875c-7.0312 0-13.031 5.2969-13.781 12.422l-11.156 107.11c-18.141 5.0625-35.906 11.203-53.203 18.375-17.438 7.2188-34.359 15.516-50.672 24.75l-82.875-67.219c-5.4375-5.1562-14.016-5.0625-19.359 0.23438l-141.74 141.79 0.046876 0.046876c-4.9688 4.9688-5.4375 12.938-0.9375 18.516l67.875 83.672c-9.2344 16.312-17.484 33.234-24.703 50.672-7.1719 17.297-13.312 35.062-18.375 53.203l-106.12 11.062c-7.4531 0.23437-13.453 6.3281-13.453 13.875v200.53h0.046874c0 7.0312 5.2969 13.031 12.422 13.781l107.11 11.156c2.9062 10.359 6.1406 20.625 9.75 30.797 2.2969 6.4688 4.7812 12.938 7.3594 19.312l-122.86-0.09375c-7.6875 0-13.875 6.2344-13.875 13.875v365.72c0 7.6406 6.2344 13.875 13.875 13.875h655.18v-0.046875c7.0312 0 13.031-5.2969 13.781-12.422l11.156-107.11c18.141-5.0625 35.906-11.203 53.203-18.375 17.438-7.2188 34.359-15.516 50.672-24.75l82.875 67.219c5.4375 5.1562 14.016 5.0625 19.359-0.23438l141.79-141.79-0.046875-0.046875c4.9688-4.9219 5.4844-12.938 0.9375-18.516l-67.875-83.672c9.2344-16.312 17.484-33.234 24.703-50.672 7.1719-17.297 13.312-35.062 18.375-53.203l106.12-11.062c7.4531-0.23438 13.406-6.3281 13.406-13.875v-200.44h-0.046875c0-7.0312-5.2969-13.031-12.422-13.781l-107.11-11.156c-5.0625-18.141-11.203-35.906-18.375-53.203-6.1406-14.859-13.078-29.297-20.672-43.312 25.453-3 48.656-6.8438 68.812-11.438 55.453-12.609 89.812-32.484 89.812-56.719v-204.32c-0.42188-24.047-34.688-43.781-89.766-56.25-49.781-11.344-118.27-18.328-193.64-18.328zm255.71 109.97c-15.281 8.6719-36.422 16.031-62.062 21.844-49.828 11.297-118.31 18.281-193.64 18.281s-143.81-6.9844-193.64-18.281c-25.641-5.8125-46.734-13.219-62.062-21.844v168.98c0 9.5625 26.016 20.203 68.109 29.766 24.328 5.5312 53.484 9.9375 85.922 12.984 0.28125 0 0.5625 0.046875 0.79688 0.09375 31.031 2.8594 65.062 4.4531 100.83 4.4531 73.547 0 139.82-6.7031 187.6-17.531 42.094-9.5625 68.109-20.203 68.109-29.766zm-539.16-34.875v183.47h-1.875c-85.688 0-163.22 34.734-219.37 90.844-56.156 56.156-90.844 133.69-90.844 219.37 0 36.844 6.4688 72.281 18.375 105.19 9.0469 25.031 21.141 48.562 35.953 70.078l-146.16 0.046876c-4.0781-9.3281-7.8281-18.844-11.25-28.5-4.3594-12.234-8.2031-24.844-11.531-37.781-1.5469-6.1406-6.9375-10.219-12.938-10.453l-103.27-10.734v-175.64l104.16-10.828c5.9531-0.60938 10.594-4.875 12-10.359h0.046875c5.2031-20.25 11.766-39.891 19.594-58.781 7.9688-19.219 17.297-37.781 27.797-55.547 3.1875-5.3438 2.2969-12-1.6875-16.359l-65.531-80.812 124.18-124.18 81.375 66.047c4.6406 3.75 10.922 4.0312 15.75 1.1719 17.766-10.547 36.328-19.828 55.547-27.797 18.891-7.8281 38.484-14.391 58.734-19.594 6.1406-1.5469 10.219-6.9375 10.453-12.938l10.734-103.27h145.82c-34.969 12.094-55.688 28.125-56.062 46.781zm471.05-29.812c42.047 9.5625 68.062 20.203 68.109 29.719v0.09375c-0.046875 9.5156-26.062 20.203-68.109 29.719-47.766 10.828-114.05 17.531-187.6 17.531s-139.82-6.7031-187.6-17.531c-42.047-9.5625-68.062-20.203-68.109-29.719v-0.046875c0-9.5625 26.016-20.203 68.109-29.766 2.2031-0.46875 4.4062-0.98438 6.7031-1.4531 0.23438-0.046875 0.46875-0.09375 0.75-0.14062 47.109-9.8906 110.34-15.891 180.14-15.891 73.547-0.046875 139.82 6.6562 187.6 17.484zm-592.55 390.1c2.5312-3.6094 6.6562-5.9531 11.391-5.9531s8.9062 2.3438 11.391 5.9531l70.828 87.656c4.7812 5.9531 3.8438 14.672-2.1094 19.453s-14.672 3.8438-19.453-2.1094l-46.781-57.891v211.74c0 7.6406-6.1875 13.875-13.875 13.875-7.6406 0-13.875-6.2344-13.875-13.875v-211.74l-46.781 57.891c-4.7812 5.9531-13.5 6.8906-19.453 2.1094s-6.8906-13.5-2.1094-19.453zm214.03 219.71v-211.74c0-7.6406 6.2344-13.875 13.875-13.875s13.875 6.2344 13.875 13.875v211.74l46.781-57.891c4.7812-5.9531 13.5-6.8906 19.453-2.1094s6.8906 13.5 2.1094 19.453l-71.297 88.266c-0.65625 0.84375-1.4062 1.5938-2.25 2.2969-5.9531 4.7812-14.672 3.8438-19.453-2.1094l-71.438-88.406c-4.7812-5.9531-3.8438-14.672 2.1094-19.453s14.672-3.8438 19.453 2.1094zm285.75-304.97c9.4219 16.359 17.812 33.328 25.125 50.906 7.8281 18.891 14.391 38.484 19.594 58.781 1.5469 6.0938 6.9375 10.219 12.938 10.453l103.27 10.734v175.6l-104.16 10.828c-5.9531 0.60938-10.594 4.875-12 10.359h-0.046875c-5.2031 20.25-11.766 39.891-19.594 58.781-7.9688 19.219-17.297 37.781-27.797 55.547-3.1875 5.3438-2.2969 12 1.6875 16.359l65.531 80.812-124.22 124.18-81.375-66.047c-4.6406-3.75-10.922-4.0312-15.75-1.1719-17.766 10.547-36.328 19.828-55.547 27.844-18.891 7.8281-38.484 14.391-58.734 19.594-6.1406 1.5469-10.219 6.9375-10.453 12.938l-10.734 103.27-135.19-0.046875v-234.42c4.9688 0.75 10.031 1.4062 15.094 1.9219 10.828 1.125 21.562 1.6875 32.203 1.6875 85.688 0 163.22-34.734 219.37-90.844 56.156-56.156 90.844-133.69 90.844-219.37 0-48.609-11.203-94.641-31.172-135.61-14.578-30-33.891-57.281-56.906-80.906 20.297 1.0781 41.438 1.6875 63.188 1.6875 33.281 0 65.25-1.3594 94.828-3.8438zm-202.78-1.2188c-32.156-3.1406-61.172-7.6875-85.688-13.219-49.734-11.297-82.453-28.453-88.688-49.359h-3c-78 0-148.64 31.641-199.74 82.734-51.141 51.094-82.734 121.74-82.734 199.74 0 33.75 5.8594 66.047 16.641 95.906 10.453 28.969 25.5 55.734 44.25 79.406h160.45c7.6875 0 13.875 6.2344 13.875 13.875v89.391c5.9062 0.98437 11.859 1.7812 17.906 2.4375 9.4219 0.98437 19.219 1.4531 29.391 1.4531 78 0 148.64-31.641 199.74-82.734 51.141-51.141 82.734-121.74 82.734-199.74 0-44.297-10.172-86.203-28.312-123.47-18.328-37.547-44.672-70.453-76.828-96.422z" fill="#80b521" fill-rule="evenodd"/>
</svg>
