<?xml version="1.0" encoding="UTF-8"?>
<svg width="1200pt" height="1200pt" version="1.1" viewBox="0 0 1200 1200" xmlns="http://www.w3.org/2000/svg">
 <path d="m31.594 892.31c0-72 29.156-137.16 76.406-184.4 31.828-31.828 72-55.594 116.86-67.594-10.734-6.0469-20.578-13.641-29.297-22.359-24.75-24.75-40.172-58.969-40.172-96.891 0-37.875 15.281-72 40.172-96.891s58.969-40.172 96.891-40.172c37.875 0 72 15.281 96.891 40.172 24.75 24.75 40.172 58.969 40.172 96.891 0 37.875-15.281 72-40.172 96.891-8.7188 8.7188-18.562 16.172-29.297 22.359 9.7031 2.6719 19.312 5.8125 28.688 9.4688 22.969-31.828 53.156-58.359 87.938-77.062 17.578-9.4688 36.234-16.922 55.969-22.219-10.734-6.0469-20.578-13.641-29.297-22.359-24.75-24.75-40.172-58.969-40.172-96.891 0-37.875 15.281-72 40.172-96.891 24.75-24.75 58.969-40.172 96.891-40.172 37.875 0 72 15.281 96.891 40.172 24.75 24.75 40.172 58.969 40.172 96.891 0 37.875-15.281 72-40.172 96.891-8.7188 8.7188-18.562 16.172-29.297 22.359 19.594 5.2969 38.391 12.75 55.969 22.219 34.875 18.844 64.922 45.234 87.938 77.062 9.3281-3.6562 18.844-6.8438 28.688-9.4688-10.734-6.0469-20.578-13.641-29.297-22.359-24.75-24.75-40.172-58.969-40.172-96.891 0-37.875 15.281-72 40.172-96.891s58.969-40.172 96.891-40.172c37.875 0 72 15.281 96.891 40.172 24.75 24.75 40.172 58.969 40.172 96.891 0 37.875-15.281 72-40.172 96.891-8.7188 8.7188-18.562 16.172-29.297 22.359 44.859 12 85.031 35.625 116.86 67.594 47.25 47.25 76.406 112.41 76.406 184.4 0 7.3125-5.9531 13.266-13.266 13.266h-494.9c-7.3125 0-13.266-5.9531-13.266-13.266 0-26.672 4.0312-52.312 11.391-76.547h-116.48c7.4531 24.141 11.391 49.875 11.391 76.547 0 7.3125-5.9531 13.266-13.266 13.266h-495.61c-7.3125 0-13.266-5.9531-13.266-13.266zm568.4-350.68c30.422 0 57.984-12.375 77.953-32.344s32.344-47.484 32.344-77.953c0-30.422-12.375-57.984-32.344-78.047-19.969-19.969-47.484-32.344-77.953-32.344-30.422 0-57.984 12.375-77.953 32.344s-32.344 47.484-32.344 78.047 12.375 57.984 32.344 77.953 47.484 32.344 77.953 32.344zm-186.71 119.48c23.484 12.375 44.953 28.172 63.516 46.734 23.25 23.25 42.047 50.766 55.219 81.234h136.03c13.125-30.562 31.969-58.125 55.219-81.234 18.562-18.562 40.031-34.359 63.516-46.734-20.203-26.766-46.125-49.031-75.938-65.062-32.953-17.812-70.734-27.797-110.91-27.797-40.172 0-77.953 10.125-110.91 27.797-29.672 16.031-55.594 38.297-75.938 65.062zm494.39-29.672c30.422 0 57.984-12.375 77.953-32.344s32.344-47.484 32.344-78.047-12.375-57.984-32.344-77.953-47.484-32.344-77.953-32.344c-30.422 0-57.984 12.375-77.953 32.344s-32.344 47.484-32.344 77.953c0 30.422 12.375 57.984 32.344 78.047 19.969 19.969 47.484 32.344 77.953 32.344zm-165.61 95.25c-39.422 39.422-64.922 92.859-68.203 152.21h467.63c-3.2812-59.391-28.781-112.78-68.203-152.21-42.328-42.328-100.92-68.578-165.61-68.578s-123.14 26.156-165.61 68.578zm-449.68-95.25c30.422 0 57.984-12.375 77.953-32.344s32.344-47.484 32.344-78.047-12.375-57.984-32.344-77.953-47.484-32.344-77.953-32.344c-30.422 0-57.984 12.375-77.953 32.344s-32.344 47.484-32.344 77.953c0 30.422 12.375 57.984 32.344 78.047 19.969 19.969 47.484 32.344 77.953 32.344zm-165.61 95.25c-39.422 39.422-64.922 92.859-68.203 152.21h467.48c-3.2812-59.391-28.781-112.78-68.203-152.21-42.328-42.328-100.92-68.578-165.61-68.578-64.691 0-123.14 26.156-165.61 68.578z" fill="#80b521" fill-rule="evenodd"/>
</svg>
