<svg xmlns="http://www.w3.org/2000/svg" version="1.1" xmlns:xlink="http://www.w3.org/1999/xlink" width="200" height="200"><svg xmlns="http://www.w3.org/2000/svg" version="1.1" xmlns:xlink="http://www.w3.org/1999/xlink" width="200" height="200"><svg xmlns="http://www.w3.org/2000/svg" version="1.1" xmlns:xlink="http://www.w3.org/1999/xlink" viewBox="0 0 200 200"><rect width="200" height="200" fill="url('#gradient')"></rect><defs><linearGradient id="gradient" gradientTransform="rotate(45 0.5 0.5)"><stop offset="0%" stop-color="#ffffff"></stop><stop offset="100%" stop-color="#ffffff"></stop></linearGradient></defs><g><g fill="#445272" transform="matrix(9.888412017167383,0,0,9.888412017167383,10.30983399922755,173.62052229443333)" stroke="#c8512e" stroke-width="0.15"><path d="M9.98 0L9.15-2.66L4.45-2.66L3.63 0L-0.03 0L5.19-14.22L8.41-14.22L13.66 0L9.98 0ZM6.80-10.23L5.27-5.30L8.33-5.30L6.80-10.23ZM18.02-10.57L18.02 0L14.72 0L14.72-10.57L18.02-10.57ZM14.52-13.29L14.52-13.29Q14.52-13.99 15.03-14.44Q15.54-14.89 16.35-14.89Q17.16-14.89 17.67-14.44Q18.17-13.99 18.17-13.29Q18.17-12.59 17.67-12.14Q17.16-11.69 16.35-11.69Q15.54-11.69 15.03-12.14Q14.52-12.59 14.52-13.29Z"></path></g></g></svg></svg><style>@media (prefers-color-scheme: light) { :root { filter: none; } }
@media (prefers-color-scheme: dark) { :root { filter: none; } }
</style></svg>