<?xml version="1.0"?>
<svg xmlns="http://www.w3.org/2000/svg" height="512px" viewBox="0 -72 480 480" width="512px"><path d="m240 288c53.019531 0 96-42.980469 96-96s-42.980469-96-96-96-96 42.980469-96 96c.058594 52.996094 43.003906 95.941406 96 96zm0-176c44.183594 0 80 35.816406 80 80s-35.816406 80-80 80-80-35.816406-80-80c.046875-44.164062 35.835938-79.953125 80-80zm0 0" fill="#616161"/><path d="m208 248h8v8h16v-8h16v8h16v-9.136719c11.5-2.890625 20.429688-11.953125 23.152344-23.496093 2.726562-11.542969-1.214844-23.640626-10.207032-31.367188 8.992188-7.726562 12.933594-19.824219 10.207032-31.367188-2.722656-11.542968-11.652344-20.605468-23.152344-23.496093v-9.136719h-16v8h-16v-8h-16v8h-8c-4.417969 0-8 3.582031-8 8v96c0 4.417969 3.582031 8 8 8zm64-32c0 8.835938-7.164062 16-16 16h-40v-32h40c8.835938 0 16 7.164062 16 16zm-56-64h40c8.835938 0 16 7.164062 16 16s-7.164062 16-16 16h-40zm0 0" fill="#616161"/><path d="m472 0h-464c-4.417969 0-8 3.582031-8 8v320c0 4.417969 3.582031 8 8 8h464c4.417969 0 8-3.582031 8-8v-320c0-4.417969-3.582031-8-8-8zm-8 320h-448v-304h448zm0 0" fill="#616161"/><path d="m56 115.679688v60.320312c0 3.234375 1.949219 6.152344 4.9375 7.390625s6.429688.550781 8.71875-1.734375l18.34375-18.34375 18.34375 18.34375c1.5 1.5 3.535156 2.34375 5.65625 2.34375 1.050781.003906 2.09375-.203125 3.0625-.609375 2.988281-1.238281 4.9375-4.15625 4.9375-7.390625v-60.320312c14.832031-13.265626 19.941406-34.3125 12.839844-52.902344-7.101563-18.59375-24.9375-30.875-44.839844-30.875s-37.738281 12.28125-44.839844 30.875c-7.101562 18.589844-1.992187 39.636718 12.839844 52.902344zm48 41.007812-10.34375-10.34375c-3.125-3.121094-8.1875-3.121094-11.3125 0l-10.34375 10.34375v-31.488281c2.503906.890625 5.078125 1.570312 7.695312 2.03125l.472657.074219c5.179687.925781 10.484375.925781 15.664062 0l.472657-.074219c2.617187-.460938 5.191406-1.140625 7.695312-2.03125zm-16-108.6875c13.746094-.050781 25.980469 8.714844 30.351562 21.75 4.371094 13.035156-.105468 27.402344-11.105468 35.648438h-.070313c-1.359375 1.023437-2.796875 1.933593-4.304687 2.722656l-.246094.136718c-1.445312.75-2.949219 1.386719-4.496094 1.902344l-.386718.121094c-6.335938 2.039062-13.148438 2.039062-19.484376 0l-.386718-.121094c-1.546875-.515625-3.050782-1.152344-4.496094-1.902344l-.246094-.136718c-1.507812-.789063-2.945312-1.699219-4.304687-2.722656h-.070313c-11-8.246094-15.476562-22.613282-11.105468-35.648438 4.371093-13.035156 16.605468-21.800781 30.351562-21.75zm0 0" fill="#616161"/><path d="m144 32h192v16h-192zm0 0" fill="#616161"/><path d="m192 64h96v16h-96zm0 0" fill="#616161"/><path d="m352 256h56v16h-56zm0 0" fill="#616161"/><path d="m72 256h56v16h-56zm0 0" fill="#616161"/><path d="m40 304h40v-16h-32v-32h-16v40c0 4.417969 3.582031 8 8 8zm0 0" fill="#616161"/><path d="m432 288h-32v16h40c4.417969 0 8-3.582031 8-8v-40h-16zm0 0" fill="#616161"/><path d="m432 80h16v-40c0-4.417969-3.582031-8-8-8h-40v16h32zm0 0" fill="#616161"/></svg>
