<svg xmlns="http://www.w3.org/2000/svg" width="62" height="80" viewBox="0 0 62 80">
  <defs>
    <style>
      .cls-1 {
        fill: #fd322c;
        fill-rule: evenodd;
      }
    </style>
  </defs>
  <path id="Forma_1" data-name="Forma 1" class="cls-1" d="M1261.11,4280.48h-7.14v-3.24c0-1.04-1.13-1.52-2.16-1.52h-5.54a8.419,8.419,0,0,0-8.36-5.72,8.544,8.544,0,0,0-8.36,5.72h-5.45c-1.04,0-2.07.48-2.07,1.52v3.24h-7.14a8.039,8.039,0,0,0-7.89,7.71v54.57c0,4.19,3.76,7.24,7.89,7.24h46.22c4.13,0,7.89-3.05,7.89-7.24v-54.57A8.039,8.039,0,0,0,1261.11,4280.48Zm-35.32-.95h5.16a2.079,2.079,0,0,0,1.79-1.72,5.464,5.464,0,0,1,5.17-4.28,5.366,5.366,0,0,1,5.07,4.28,2.081,2.081,0,0,0,1.88,1.72h5.35v7.62h-24.42v-7.62Zm39.45,63.23c0,2.1-2.06,3.43-4.13,3.43h-46.22c-2.07,0-4.13-1.33-4.13-3.43v-54.57a4.243,4.243,0,0,1,4.13-3.9h7.14v4.86a1.993,1.993,0,0,0,2.07,1.81h27.71a2.082,2.082,0,0,0,2.16-1.81v-4.86h7.14a4.243,4.243,0,0,1,4.13,3.9v54.57h0Zm-34.47-30.19a1.863,1.863,0,0,0-2.63-.09l-6.02,5.81-2.53-2.67a1.863,1.863,0,0,0-2.63-.09,2.013,2.013,0,0,0,0,2.76l3.85,4a1.679,1.679,0,0,0,1.31.57,1.881,1.881,0,0,0,1.32-.57l7.33-7.05a1.833,1.833,0,0,0,.1-2.56A1.1,1.1,0,0,1,1230.77,4312.57Zm26.96,4.1h-21.61a1.905,1.905,0,0,0,0,3.81h21.61A1.905,1.905,0,0,0,1257.73,4316.67Zm-26.96-19.33a1.855,1.855,0,0,0-2.63-.1l-6.02,5.81-2.53-2.67a1.863,1.863,0,0,0-2.63-.09,2.013,2.013,0,0,0,0,2.76l3.85,4a1.647,1.647,0,0,0,1.31.57,1.881,1.881,0,0,0,1.32-.57l7.33-7.05a1.821,1.821,0,0,0,.1-2.55A1.1,1.1,0,0,0,1230.77,4297.34Zm26.96,4.09h-21.61a1.905,1.905,0,0,0,0,3.81h21.61A1.905,1.905,0,0,0,1257.73,4301.43Zm-26.96,26.38a1.863,1.863,0,0,0-2.63-.09l-6.02,5.8-2.53-2.66a1.864,1.864,0,0,0-2.63-.1,2.013,2.013,0,0,0,0,2.76l3.85,4a1.688,1.688,0,0,0,1.31.58,1.891,1.891,0,0,0,1.32-.58l7.33-7.04a1.833,1.833,0,0,0,.1-2.56C1230.84,4327.88,1230.8,4327.85,1230.77,4327.81Zm26.96,4.1h-21.61a1.9,1.9,0,0,0,0,3.8h21.61A1.9,1.9,0,0,0,1257.73,4331.91Z" transform="translate(-1207 -4270)"/>
</svg>
