<?xml version="1.0"?>
<svg xmlns="http://www.w3.org/2000/svg" xmlns:xlink="http://www.w3.org/1999/xlink" xmlns:svgjs="http://svgjs.com/svgjs" version="1.1" width="512" height="512" x="0" y="0" viewBox="0 0 512 512" style="enable-background:new 0 0 512 512" xml:space="preserve" class=""><g><g xmlns="http://www.w3.org/2000/svg"><path d="m106 422h15v-211h-15c-5.059 0-10.068.361-15 1.061v-62.061h60v-15c0-24.813 20.187-45 45-45h120c24.813 0 45 20.187 45 45v15h60v62.061c-4.932-.7-9.941-1.061-15-1.061h-15v211h15c5.06 0 10.068-.365 15-1.073v16.073c0 8.271-6.729 15-15 15h-77.58c-6.192-17.459-22.865-30-42.42-30h-60c-24.813 0-45 20.187-45 45s20.187 45 45 45h60c19.555 0 36.228-12.541 42.42-30h77.58c24.813 0 45-20.187 45-45v-25.125c35.055-16.67 61-52.91 61-95.875 0-42.74-25.985-78.522-61-94.987v-86.013c0-74.439-60.561-135-135-135h-120c-74.439 0-135 60.561-135 135v86.013c-35.115 16.512-61 52.309-61 94.987 0 58.253 47.984 106 106 106zm180 60h-60c-8.271 0-15-6.729-15-15s6.729-15 15-15h60c8.271 0 15 6.729 15 15s-6.729 15-15 15zm196-166c0 36.079-26.695 67.256-61 74.444v-147.977c34.748 6.891 61 37.244 61 73.533zm-286-286h120c52.804 0 96.623 39.183 103.924 90h-30.431c-6.969-34.191-37.274-60-73.493-60h-120c-36.219 0-66.524 25.809-73.493 60h-30.431c7.301-50.817 51.12-90 103.924-90zm-105 212.467v147.977c-34.305-7.188-61-38.365-61-74.444 0-36.289 26.252-66.642 61-73.533z" fill="#ffffff" data-original="#000000" style="" class=""/></g></g></svg>
